<svg width="16" height="16" viewBox="0 0 20 20" fill="currentColor" xmlns="http://www.w3.org/2000/svg">
  <path d="M12 2.5H8C6.61929 2.5 5.5 3.61929 5.5 5H4.5C3.39543 5 2.5 5.89543 2.5 7V15.5C2.5 16.6046 3.39543 17.5 4.5 17.5H15.5C16.6046 17.5 17.5 16.6046 17.5 15.5V7C17.5 5.89543 16.6046 5 15.5 5H14.5C14.5 3.61929 13.3807 2.5 12 2.5ZM13.5 5H15.5C15.7761 5 16 5.22386 16 5.5V15.5C16 15.7761 15.7761 16 15.5 16H4.5C4.22386 16 4 15.7761 4 15.5V7C4 5.89543 4.22386 5 4.5 5H6.5C6.5 6.38071 7.61929 7.5 9 7.5H11C12.3807 7.5 13.5 6.38071 13.5 5ZM12 4.5V5C12 5.55228 11.5523 6 11 6H9C8.44772 6 8 5.55228 8 5V4.5C8 3.94772 8.44772 3.5 9 3.5H11C11.5523 3.5 12 3.94772 12 4.5Z" />
</svg>
