<svg width="16" height="16" viewBox="0 0 16 16" fill="currentColor" xmlns="http://www.w3.org/2000/svg">
  <path d="M0 8a8 8 0 1 1 16 0A8 8 0 0 1 0 8zm7.5-6.923c-.67.204-1.335.82-1.887 1.855A7.97 7.97 0 0 0 5.145 4H7.5V1.077zM4.09 4a9.267 9.267 0 0 1 .64-1.539 6.7 6.7 0 0 1 .597-.933A7.025 7.025 0 0 0 2.255 4H4.09zm-.582 3.5c.03-.877.138-1.718.312-2.5H1.674a6.958 6.958 0 0 0-.656 2.5h2.49zm.03 1H1.018a6.958 6.958 0 0 0 .656 2.5h2.146a20.408 20.408 0 0 1-.312-2.5zM4.73 13.538c-.347-.354-.648-.795-.9-1.309a6.7 6.7 0 0 1-.597-.934 7.025 7.025 0 0 0 3.026 2.671L4.73 13.538zm.415-1.538c.196.487.422.91.668 1.258.552 1.035 1.218 1.65 1.887 1.855V12h-2.555zm3.355 0v2.923c.67-.204 1.335-.82 1.887-1.855.246-.347.472-.771.668-1.258H8.5zm3.155 1.538c.552-1.035 1.218-1.65 1.887-1.855V12h-2.555c.196.487.422.91.668 1.258zM12 8.5c-.03.877-.138 1.718-.312 2.5h2.49a6.958 6.958 0 0 0 .656-2.5H12zm2.178-1a6.958 6.958 0 0 0-.656-2.5h-2.146c.174.782.282 1.623.312 2.5h2.49zM11.27 2.462c.347.354.648.795.9 1.309.245.487.444.802.597.934a7.025 7.025 0 0 0-3.026-2.671l1.53 1.538zM8.5 4h2.555c-.196-.487-.422-.91-.668-1.258C9.835 1.707 9.17 1.092 8.5 1.077V4zm0 3.5h3.482c-.03-.877-.138-1.718-.312-2.5H8.5v2.5zM8.5 11h2.828c-.174.782-.282 1.623-.312 2.5H8.5V11zm-4-3.5h3.5v-2.5H4.812c-.174.782-.282 1.623-.312 2.5h.312zm-.312 1h3.5V11H4.5c.03.877.138 1.718.312 2.5H7.5v-3.5H4.188z"/>
</svg>
