<svg width="16" height="16" viewBox="0 0 20 20" fill="currentColor" xmlns="http://www.w3.org/2000/svg">
  <path d="M14.5 3.5C15.6046 3.5 16.5 4.39543 16.5 5.5V14.5C16.5 15.6046 15.6046 16.5 14.5 16.5H5.5C4.39543 16.5 3.5 15.6046 3.5 14.5V5.5C3.5 4.39543 4.39543 3.5 5.5 3.5H14.5ZM14.5 4.5H5.5C4.94772 4.5 4.5 4.94772 4.5 5.5V12.7932L7.35355 9.93967C7.54882 9.74441 7.8654 9.74441 8.06066 9.93967L10.5 12.379L12.9393 9.93967C13.1346 9.74441 13.4512 9.74441 13.6464 9.93967L15.5 11.7932V5.5C15.5 4.94772 15.0523 4.5 14.5 4.5ZM14.5 15.5C15.0523 15.5 15.5 15.0523 15.5 14.5V13.2074L13.2929 11L10.8536 13.4393C10.6583 13.6346 10.3417 13.6346 10.1464 13.4393L7.70711 11L4.5 14.2074V14.5C4.5 15.0523 4.94772 15.5 5.5 15.5H14.5ZM13 6.5C13.5523 6.5 14 6.94772 14 7.5C14 8.05228 13.5523 8.5 13 8.5C12.4477 8.5 12 8.05228 12 7.5C12 6.94772 12.4477 6.5 13 6.5Z" />
</svg>
