<svg width="16" height="16" viewBox="0 0 20 20" fill="currentColor" xmlns="http://www.w3.org/2000/svg">
  <path d="M5 5C5 3.89543 5.89543 3 7 3H13C14.1046 3 15 3.89543 15 5V6H16.5C17.3284 6 18 6.67157 18 7.5V11C18 11.8284 17.3284 12.5 16.5 12.5H15V14C15 15.1046 14.1046 16 13 16H7C5.89543 16 5 15.1046 5 14V12.5H3.5C2.67157 12.5 2 11.8284 2 11V7.5C2 6.67157 2.67157 6 3.5 6H5V5ZM6.5 5V14C6.5 14.2761 6.72386 14.5 7 14.5H13C13.2761 14.5 13.5 14.2761 13.5 14V5C13.5 4.72386 13.2761 4.5 13 4.5H7C6.72386 4.5 6.5 4.72386 6.5 5ZM8.5 7.5C8.5 7.22386 8.72386 7 9 7H9.01C9.28614 7 9.51 7.22386 9.51 7.5C9.51 7.77614 9.28614 8 9.01 8H9C8.72386 8 8.5 7.77614 8.5 7.5ZM11 7.5C11 7.22386 11.2239 7 11.5 7H11.51C11.7861 7 12.01 7.22386 12.01 7.5C12.01 7.77614 11.7861 8 11.51 8H11.5C11.2239 8 11 7.77614 11 7.5ZM8.5 11C8.5 10.7239 8.72386 10.5 9 10.5H11C11.2761 10.5 11.5 10.7239 11.5 11C11.5 11.2761 11.2761 11.5 11 11.5H9C8.72386 11.5 8.5 11.2761 8.5 11Z" />
</svg>
