<svg width="16" height="16" viewBox="0 0 20 20" fill="currentColor" xmlns="http://www.w3.org/2000/svg">
  <path d="M2.55206 2.5201C2.63776 2.4431 2.75336 2.4048 2.87106 2.4144L17.3711 3.5944C17.5146 3.606 17.6433 3.6845 17.7226 3.8048C17.8018 3.925 17.8203 4.072 17.7728 4.2078L13.1061 17.5411C13.0483 17.7063 12.8943 17.818 12.7201 17.8211C12.5459 17.8242 12.392 17.7179 12.3341 17.5552L10.0001 11.0001L3.44496 8.6659C3.28226 8.608 3.17596 8.4541 3.17906 8.2799C3.18216 8.1057 3.29386 7.9517 3.45906 7.8939L16.7924 3.2272L2.52006 3.4479C2.39056 3.45 2.26876 3.3934 2.18956 3.2941C2.11036 3.1948 2.08546 3.0645 2.12196 2.9431L2.55206 2.5201Z" />
</svg>
