<svg width="16" height="16" viewBox="0 0 20 20" fill="currentColor" xmlns="http://www.w3.org/2000/svg">
  <path d="M10 2.5C10.2761 2.5 10.5 2.72386 10.5 3V5.5C10.5 5.77614 10.2761 6 10 6C9.72386 6 9.5 5.77614 9.5 5.5V3C9.5 2.72386 9.72386 2.5 10 2.5ZM15.3033 4.6967C15.4986 4.89196 15.4986 5.20854 15.3033 5.40381L13.5355 7.17157C13.3403 7.36683 13.0237 7.36683 12.8284 7.17157C12.6332 6.97631 12.6332 6.65973 12.8284 6.46447L14.5962 4.6967C14.7915 4.50144 15.108 4.50144 15.3033 4.6967ZM17.5 10C17.5 9.72386 17.2761 9.5 17 9.5H14.5C14.2239 9.5 14 9.72386 14 10C14 10.2761 14.2239 10.5 14.5 10.5H17C17.2761 10.5 17.5 10.2761 17.5 10ZM15.3033 15.3033C15.108 15.4986 14.7915 15.4986 14.5962 15.3033L12.8284 13.5355C12.6332 13.3403 12.6332 13.0237 12.8284 12.8284C13.0237 12.6332 13.3403 12.6332 13.5355 12.8284L15.3033 14.5962C15.4986 14.7915 15.4986 15.108 15.3033 15.3033ZM10 17.5C9.72386 17.5 9.5 17.2761 9.5 17V14.5C9.5 14.2239 9.72386 14 10 14C10.2761 14 10.5 14.2239 10.5 14.5V17C10.5 17.2761 10.2761 17.5 10 17.5ZM4.6967 15.3033C4.50144 15.108 4.50144 14.7915 4.6967 14.5962L6.46447 12.8284C6.65973 12.6332 6.97631 12.6332 7.17157 12.8284C7.36683 13.0237 7.36683 13.3403 7.17157 13.5355L5.40381 15.3033C5.20854 15.4986 4.89196 15.4986 4.6967 15.3033ZM2.5 10C2.5 10.2761 2.72386 10.5 3 10.5H5.5C5.77614 10.5 6 10.2761 6 10C6 9.72386 5.77614 9.5 5.5 9.5H3C2.72386 9.5 2.5 9.72386 2.5 10ZM4.6967 4.6967C4.89196 4.50144 5.20854 4.50144 5.40381 4.6967L7.17157 6.46447C7.36683 6.65973 7.36683 6.97631 7.17157 7.17157C6.97631 7.36683 6.65973 7.36683 6.46447 7.17157L4.6967 5.40381C4.50144 5.20854 4.50144 4.89196 4.6967 4.6967Z" />
</svg>
